<svg width="40" height="40" viewBox="0 0 40 40" fill="none" xmlns="http://www.w3.org/2000/svg">
<path fill-rule="evenodd" clip-rule="evenodd" d="M6.875 10.625V33.4743L10.8796 30.1079L12.0861 31.5432L10.8796 30.1079C11.4427 29.6345 12.1548 29.375 12.8904 29.375H33.125V10.625H6.875ZM4.04029 7.79029C4.62634 7.20424 5.4212 6.875 6.25 6.875H33.75C34.5788 6.875 35.3737 7.20424 35.9597 7.79029C36.5458 8.37635 36.875 9.1712 36.875 10V30C36.875 30.8288 36.5458 31.6237 35.9597 32.2097C35.3737 32.7958 34.5788 33.125 33.75 33.125H13.1182L8.26087 37.2083C7.80534 37.5912 7.24994 37.8361 6.65999 37.9142C6.07004 37.9923 5.47005 37.9003 4.9306 37.649C4.39114 37.3978 3.93464 36.9977 3.61478 36.4959C3.29492 35.994 3.125 35.4113 3.125 34.8162V10C3.125 9.1712 3.45424 8.37634 4.04029 7.79029ZM15.6249 22.4999C17.0056 22.4999 18.1249 21.3806 18.1249 19.9999C18.1249 18.6192 17.0056 17.4999 15.6249 17.4999C14.2442 17.4999 13.1249 18.6192 13.1249 19.9999C13.1249 21.3806 14.2442 22.4999 15.6249 22.4999ZM26.8749 19.9999C26.8749 21.3806 25.7556 22.4999 24.3749 22.4999C22.9942 22.4999 21.8749 21.3806 21.8749 19.9999C21.8749 18.6192 22.9942 17.4999 24.3749 17.4999C25.7556 17.4999 26.8749 18.6192 26.8749 19.9999Z" fill="white"/>
</svg>
