<?xml version="1.0" encoding="utf-8"?>
<!-- Generator: Adobe Illustrator 27.4.0, SVG Export Plug-In . SVG Version: 6.00 Build 0)  -->
<svg version="1.1" id="Layer_1" xmlns="http://www.w3.org/2000/svg" xmlns:xlink="http://www.w3.org/1999/xlink" x="0px" y="0px"
	 viewBox="0 0 64 64" style="enable-background:new 0 0 64 64;" xml:space="preserve">
<style type="text/css">
	.st0{fill:none;stroke:#FFFFFF;stroke-width:2.1309;stroke-miterlimit:10;}
</style>
<g>
	<g>
		<path class="st0" d="M38.51,54.05c-3.09-2.74-8.37-4.75-12.47-4.7c-1.23,0.92-3.65,2.09-4.52,3.33c-2.31-0.79-4.84-3.32-7.07-6.04
			c-2.23-2.72-4.22-5.68-4.56-8.1c1.39-0.61,2.98-2.49,4.12-3.51c0.84-4.01-0.11-9.58-2.21-13.14c-2.43-0.41-5.45-1.71-9.68,0.22
			c-1.74,5.16-2.32,16.8,7.37,29.05c10.14,11.87,21.82,11.84,27.22,11.14C39.42,58.5,38.44,56.51,38.51,54.05z"/>
	</g>
	<g>
		<path class="st0" d="M34.67,38.19h-9.94v-1.23l4.29-4.25c1.3-1.19,2.04-2.09,2.57-2.72c0.52-0.63,0.82-1.23,1.07-1.8
			c0.25-0.57,0.33-1.17,0.33-1.8c0-0.91-0.62-2.69-3.1-3.32c-2.48-0.63-4.95,0.74-6.41,2.95 M25.62,36.83"/>
		<path class="st0" d="M48.88,33.92H37.52v-1.96l5.51-9.41h3.02v17.05"/>
	</g>
	<path class="st0" d="M8.13,13.84c5.52-7.5,14.41-12.37,24.44-12.37c16.74,0,30.32,13.57,30.32,30.32c0,13.05-8.24,24.17-19.8,28.44
		"/>
</g>
</svg>
