<?xml version="1.0" encoding="utf-8"?>
<!-- Generator: Adobe Illustrator 27.4.0, SVG Export Plug-In . SVG Version: 6.00 Build 0)  -->
<svg version="1.1" id="Layer_1" xmlns="http://www.w3.org/2000/svg" xmlns:xlink="http://www.w3.org/1999/xlink" x="0px" y="0px"
	 viewBox="0 0 64 64" style="enable-background:new 0 0 64 64;" xml:space="preserve">
<style type="text/css">
	.st0{fill:none;stroke:#FFFFFF;stroke-width:2.0191;stroke-miterlimit:10;}
</style>
<g>
	<g>
		<path class="st0" d="M53.24,18.3l-0.23-0.24c-1.16-1.22-1.49-2.81-0.73-3.52l3.22-3.04c1.16-1.11,3.07-1.01,4.22,0.21l0.23,0.24
			c1.16,1.22,1.15,3.12-0.01,4.23l-3.22,3.04C55.96,19.93,54.4,19.52,53.24,18.3z"/>
		<path class="st0" d="M26.3,63.23c0,0,2.62-2.7,4.04-4.04c10.97,0.8,15.06-6.8,16.15-8.08"/>
		<path class="st0" d="M54.07,43.49l-0.23-0.2c-1.16-1-1.6-2.42-0.96-3.16l2.7-3.11c0.98-1.13,2.73-1.24,3.89-0.23L59.7,37
			c1.16,1,1.32,2.75,0.34,3.88l-2.7,3.11C56.71,44.72,55.24,44.5,54.07,43.49z"/>
		<path class="st0" d="M27.64,53.8c2.92-8.35,0.06-15.84-2.58-19.18c1.11-3.33,1.56-5.72,1.93-9.64c0.21-2.25-0.74-4.19-1.74-5.59
			c-1.02-1.43-3.51-1.1-4.01,0.5c-2.2,7.04-2.61,8.96-3.97,12.5c-1.52,3.96-0.65,9.51-1.41,11.13c-0.15,0.32-3.03,4.89-3.03,4.89"/>
		<path class="st0" d="M54.09,35.03l-0.23-0.2c-1.18-1.02-1.62-2.47-0.98-3.21l2.75-3.16c0.99-1.15,2.77-1.26,3.96-0.24l0.23,0.2
			c1.18,1.02,1.34,2.8,0.35,3.95l-2.75,3.16C56.77,36.28,55.28,36.05,54.09,35.03z"/>
		<path class="st0" d="M54.09,26.78l-0.23-0.2c-1.18-1.02-1.62-2.47-0.98-3.21l2.75-3.16c0.99-1.15,2.77-1.26,3.96-0.24l0.23,0.2
			c1.18,1.02,1.34,2.8,0.35,3.95l-2.75,3.16C56.77,28.03,55.28,27.8,54.09,26.78z"/>
		<line class="st0" x1="37.07" y1="47.07" x2="41.1" y2="47.07"/>
		<path class="st0" d="M54.56,12.08V5.35c0-2.23-1.81-4.04-4.04-4.04H27.64c-2.23,0-4.04,1.81-4.04,4.04c0,3.97,0,13.46,0,13.46"/>
		<path class="st0" d="M27.64,51.11h22.88c2.23,0,4.04-1.81,4.04-4.04l0,0v-2.69"/>
		<polyline class="st0" points="27.64,63.23 10.15,45.73 3.42,52.46 14.18,63.23 		"/>
		<line class="st0" x1="10.15" y1="52.46" x2="11.49" y2="53.8"/>
		<line class="st0" x1="28.99" y1="43.04" x2="53.22" y2="43.04"/>
		<line class="st0" x1="23.61" y1="8.04" x2="54.56" y2="8.04"/>
	</g>
	<g>
		<path class="st0" d="M42.93,21.83v-1.37c0-1.51-1.22-2.73-2.73-2.73h-2.73c-1.51,0-2.73,1.22-2.73,2.73v0.76
			c0,1.18,0.75,2.22,1.87,2.59l4.46,1.49c1.11,0.37,1.87,1.41,1.87,2.59v0.76c0,1.51-1.22,2.73-2.73,2.73h-2.73
			c-1.51,0-2.73-1.22-2.73-2.73v-1.37"/>
		<line class="st0" x1="38.84" y1="31.39" x2="38.84" y2="35.48"/>
		<line class="st0" x1="38.84" y1="17.74" x2="38.84" y2="13.64"/>
	</g>
</g>
</svg>
