<svg xmlns="http://www.w3.org/2000/svg" width="110" height="26" viewBox="0 0 110 26">
    <g fill="none">
        <path fill="#000032" d="M29.406 9.241h11.067v1.997h-4.351v11.226h-2.393V11.238h-4.332V9.241h.01zM40 12.89h2.046v1.847h.038c.068-.26.193-.513.377-.755.183-.243.405-.476.665-.672.26-.206.55-.364.869-.495.318-.121.646-.186.974-.186.251 0 .434.009.53.018.097.01.194.028.3.038v2.034c-.154-.028-.309-.047-.473-.066-.164-.018-.318-.028-.473-.028-.366 0-.714.075-1.042.215-.328.14-.607.355-.849.625-.24.28-.434.616-.579 1.027-.144.41-.212.877-.212 1.409v4.553h-2.18V12.89H40zm15.824 9.574h-2.142v-1.335h-.039c-.27.485-.666.868-1.196 1.157-.53.29-1.071.439-1.621.439-1.303 0-2.248-.308-2.827-.933-.58-.625-.869-1.568-.869-2.828V12.89h2.181v5.87c0 .839.164 1.436.502 1.781.328.346.8.523 1.399.523.463 0 .84-.065 1.148-.205.309-.14.56-.318.743-.551.193-.224.328-.504.415-.821.087-.317.125-.663.125-1.036V12.9h2.18v9.565zm3.714-3.07c.068.615.31 1.045.724 1.297.425.242.926.373 1.515.373.202 0 .434-.019.695-.047.26-.028.51-.093.733-.177.231-.084.415-.215.57-.383.144-.168.211-.382.202-.653-.01-.27-.116-.494-.309-.662-.193-.178-.434-.308-.733-.42-.3-.103-.637-.196-1.023-.27-.386-.075-.772-.16-1.168-.243-.405-.084-.8-.196-1.177-.318-.376-.121-.714-.289-1.013-.504-.299-.205-.54-.475-.714-.802-.183-.327-.27-.728-.27-1.213 0-.523.135-.952.396-1.306.26-.355.598-.635.994-.85.405-.214.849-.363 1.34-.457.493-.084.965-.13 1.41-.13.51 0 1.003.056 1.466.158.463.103.888.27 1.264.513.376.234.685.542.936.915.25.373.405.83.473 1.362H63.57c-.106-.504-.337-.849-.714-1.017-.376-.177-.81-.261-1.292-.261-.155 0-.338.01-.55.037-.213.028-.406.075-.599.14-.183.065-.337.168-.472.299-.126.13-.193.298-.193.513 0 .261.096.466.28.625.183.159.424.29.723.401.3.103.637.196 1.023.27.386.076.781.16 1.187.244.395.084.781.196 1.167.317s.724.29 1.023.504c.299.214.54.476.723.793.184.317.28.718.28 1.185 0 .57-.135 1.045-.405 1.446-.27.392-.617.719-1.042.961-.425.243-.907.43-1.428.541-.521.112-1.042.168-1.553.168-.628 0-1.206-.065-1.737-.205-.53-.14-.994-.345-1.38-.616-.386-.28-.695-.625-.916-1.035-.222-.411-.338-.906-.357-1.475h2.2v-.018zm7.198-6.504h1.65v-2.874h2.18v2.874h1.969v1.577h-1.968v5.113c0 .224.01.41.029.579.019.158.067.298.135.41.067.112.173.196.318.252.145.056.328.084.579.084.154 0 .309 0 .463-.01.154-.008.309-.027.463-.064v1.633c-.241.028-.482.046-.704.074-.232.028-.463.037-.704.037-.58 0-1.042-.055-1.39-.158-.347-.103-.627-.261-.82-.467-.203-.205-.328-.457-.405-.765-.068-.308-.116-.662-.126-1.054v-5.646h-1.65V12.89h-.019zm7.343 0h2.064v1.297h.04c.308-.56.732-.952 1.282-1.195.55-.242 1.139-.363 1.785-.363.782 0 1.457.13 2.036.4.579.262 1.061.626 1.447 1.093.386.466.666 1.007.86 1.623.192.616.289 1.279.289 1.978 0 .644-.087 1.27-.261 1.867-.174.606-.434 1.138-.781 1.604-.348.467-.792.831-1.332 1.11-.54.28-1.167.42-1.9.42-.32 0-.638-.027-.956-.083-.318-.056-.627-.15-.917-.27-.289-.122-.569-.28-.81-.477-.25-.196-.453-.42-.627-.672h-.039V26h-2.18V12.89zm7.622 4.796c0-.43-.058-.85-.174-1.26-.115-.41-.29-.765-.52-1.082-.232-.317-.522-.57-.86-.756-.347-.187-.742-.29-1.186-.29-.917 0-1.611.309-2.075.925-.463.615-.694 1.437-.694 2.463 0 .485.058.933.183 1.344.125.41.3.765.55 1.063.241.299.53.532.868.7.338.178.734.262 1.177.262.502 0 .917-.103 1.264-.3.348-.195.628-.456.85-.764.221-.317.385-.672.482-1.073.087-.402.135-.812.135-1.232zm3.85-8.445h2.18v1.997h-2.18V9.241zm0 3.649h2.18v9.574h-2.18V12.89zm4.13-3.649h2.18v13.223h-2.18V9.24zm8.866 13.484c-.79 0-1.495-.13-2.113-.383-.617-.252-1.138-.606-1.572-1.045-.425-.448-.753-.98-.975-1.595-.222-.616-.338-1.297-.338-2.035 0-.727.116-1.4.338-2.015.222-.616.55-1.148.975-1.596.424-.448.955-.793 1.572-1.045.618-.252 1.322-.382 2.113-.382.791 0 1.496.13 2.113.382.618.252 1.139.607 1.573 1.045.425.448.753.98.974 1.596.222.616.338 1.288.338 2.015 0 .738-.116 1.419-.338 2.035-.221.615-.55 1.147-.974 1.595-.425.448-.955.793-1.573 1.045-.617.252-1.322.383-2.113.383zm0-1.67c.483 0 .907-.103 1.264-.3.357-.195.647-.456.878-.774.232-.317.396-.68.512-1.082.106-.401.164-.812.164-1.232 0-.41-.058-.811-.164-1.222-.107-.41-.28-.765-.512-1.082-.231-.318-.52-.57-.878-.766-.357-.196-.781-.298-1.264-.298-.482 0-.907.102-1.264.298s-.646.458-.878.766c-.231.317-.395.671-.511 1.082-.106.41-.164.812-.164 1.222 0 .42.058.83.164 1.232.106.401.28.765.511 1.082.232.318.521.579.878.775.357.205.782.299 1.264.299zm5.635-8.165h1.65v-2.874h2.18v2.874h1.969v1.577h-1.969v5.113c0 .224.01.41.03.579.019.158.067.298.134.41.068.112.174.196.319.252.145.056.328.084.579.084.154 0 .308 0 .463-.01.154-.008.309-.027.463-.064v1.633c-.241.028-.482.046-.704.074-.232.028-.463.037-.705.037-.579 0-1.042-.055-1.39-.158-.346-.103-.626-.261-.82-.467-.202-.205-.327-.457-.404-.765-.068-.308-.116-.662-.126-1.054v-5.646h-1.65V12.89h-.019z"/>
        <path fill="#00B67A" d="M26.552 9.251L16.413 9.251 13.281 0 10.139 9.251 0 9.242 8.211 14.965 5.07 24.207 13.281 18.493 21.482 24.207 18.35 14.965z"/>
        <path fill="#005128" d="M18.966 17.105L18.271 14.897 13.276 18.621z"/>
    </g>
</svg>
